<svg xmlns="http://www.w3.org/2000/svg" viewBox="0 0 114 114"><path d="M0 57.008v57.008l57.25-.258 57.25-.258.258-56.75.259-56.75H0v57.008m.468.492c0 31.35.127 44.03.282 28.179.154-15.852.154-41.502-.001-57C.594 13.18.468 26.15.468 57.5m32.487.076c-23.728 48.228-21.595 43.431-19.288 43.397 1.323-.02 3.963-3.987 9.484-14.25L30.803 72.5l9.032-.287 9.032-.286 4.215 7.094 4.214 7.094 6.197-11.64c3.408-6.402 6.548-11.491 6.978-11.308.43.183 3.481 5.508 6.779 11.833 15.156 29.067 13.524 27.316 24.983 26.801l6.691-.301-22.212-42.743L64.5 16.015l-5.545-.008L53.411 16 32.955 57.576m22.823-32.287C54.429 26.379 38 56.988 38 58.41c0 .325 6.339.59 14.086.59h14.087l-5.087-9.435c-5.339-9.904-5.819-11.863-3.925-16.018 1.802-3.956 2.202-3.485 10.38 12.203 25.201 48.349 25.163 48.287 28.436 46.264 1.08-.667.299-2.711-3.7-9.68C89.49 77.475 81.945 63.825 75.511 52 59.844 23.204 59.288 22.451 55.778 25.289" fill-rule="evenodd"/></svg>